<svg xmlns="http://www.w3.org/2000/svg" xmlns:xlink="http://www.w3.org/1999/xlink" width="1024" zoomAndPan="magnify" viewBox="0 0 768 767.999994" height="1024" preserveAspectRatio="xMidYMid meet" version="1.0"><defs><clipPath id="21d105e56c"><path d="M 76.800781 73.132812 L 694.800781 73.132812 L 694.800781 691.132812 L 76.800781 691.132812 Z M 76.800781 73.132812 " clip-rule="nonzero"/></clipPath><clipPath id="9f68d1014a"><path d="M 166.652344 211.671875 L 604.652344 211.671875 L 604.652344 556.667969 L 166.652344 556.667969 Z M 166.652344 211.671875 " clip-rule="nonzero"/></clipPath></defs><g clip-path="url(#21d105e56c)"><path fill="#ea57a8" d="M 694.859375 382.160156 C 694.859375 387.21875 694.734375 392.273438 694.484375 397.324219 C 694.238281 402.375 693.867188 407.417969 693.371094 412.453125 C 692.875 417.484375 692.253906 422.503906 691.515625 427.503906 C 690.773438 432.507812 689.90625 437.488281 688.921875 442.449219 C 687.933594 447.410156 686.824219 452.34375 685.597656 457.25 C 684.367188 462.15625 683.019531 467.027344 681.550781 471.867188 C 680.082031 476.707031 678.496094 481.507812 676.792969 486.269531 C 675.089844 491.03125 673.269531 495.75 671.335938 500.421875 C 669.398438 505.09375 667.351562 509.714844 665.1875 514.289062 C 663.027344 518.859375 660.753906 523.375 658.367188 527.835938 C 655.984375 532.296875 653.492188 536.695312 650.890625 541.035156 C 648.292969 545.371094 645.585938 549.644531 642.777344 553.847656 C 639.96875 558.054688 637.054688 562.1875 634.042969 566.25 C 631.03125 570.3125 627.921875 574.296875 624.710938 578.207031 C 621.503906 582.117188 618.203125 585.945312 614.804688 589.691406 C 611.410156 593.441406 607.921875 597.101562 604.347656 600.679688 C 600.769531 604.253906 597.109375 607.742188 593.359375 611.136719 C 589.613281 614.535156 585.785156 617.835938 581.875 621.042969 C 577.964844 624.253906 573.980469 627.363281 569.917969 630.375 C 565.855469 633.390625 561.722656 636.300781 557.515625 639.109375 C 553.3125 641.917969 549.039062 644.625 544.703125 647.226562 C 540.363281 649.824219 535.964844 652.316406 531.503906 654.699219 C 527.042969 657.085938 522.527344 659.359375 517.957031 661.519531 C 513.382812 663.683594 508.761719 665.730469 504.089844 667.667969 C 499.417969 669.601562 494.699219 671.421875 489.9375 673.125 C 485.175781 674.828125 480.375 676.414062 475.535156 677.882812 C 470.695312 679.351562 465.824219 680.699219 460.917969 681.929688 C 456.011719 683.160156 451.078125 684.265625 446.117188 685.253906 C 441.15625 686.238281 436.175781 687.105469 431.171875 687.847656 C 426.171875 688.589844 421.152344 689.207031 416.121094 689.703125 C 411.085938 690.199219 406.042969 690.570312 400.992188 690.820312 C 395.941406 691.066406 390.886719 691.191406 385.828125 691.191406 C 380.773438 691.191406 375.71875 691.066406 370.664062 690.820312 C 365.613281 690.570312 360.570312 690.199219 355.539062 689.703125 C 350.507812 689.207031 345.488281 688.589844 340.484375 687.847656 C 335.484375 687.105469 330.5 686.238281 325.539062 685.253906 C 320.582031 684.265625 315.648438 683.160156 310.742188 681.929688 C 305.835938 680.699219 300.960938 679.351562 296.121094 677.882812 C 291.28125 676.414062 286.480469 674.828125 281.71875 673.125 C 276.957031 671.421875 272.242188 669.601562 267.570312 667.667969 C 262.894531 665.730469 258.273438 663.683594 253.703125 661.519531 C 249.128906 659.359375 244.613281 657.085938 240.152344 654.699219 C 235.695312 652.316406 231.292969 649.824219 226.957031 647.226562 C 222.617188 644.625 218.347656 641.917969 214.140625 639.109375 C 209.9375 636.300781 205.804688 633.390625 201.742188 630.375 C 197.679688 627.363281 193.691406 624.253906 189.78125 621.042969 C 185.875 617.835938 182.046875 614.535156 178.296875 611.136719 C 174.550781 607.742188 170.890625 604.253906 167.3125 600.679688 C 163.738281 597.101562 160.25 593.441406 156.855469 589.691406 C 153.457031 585.945312 150.15625 582.117188 146.945312 578.207031 C 143.738281 574.296875 140.628906 570.3125 137.613281 566.25 C 134.601562 562.1875 131.691406 558.054688 128.878906 553.847656 C 126.070312 549.644531 123.367188 545.371094 120.765625 541.035156 C 118.164062 536.695312 115.675781 532.296875 113.289062 527.835938 C 110.90625 523.375 108.632812 518.859375 106.46875 514.289062 C 104.308594 509.714844 102.257812 505.09375 100.324219 500.421875 C 98.386719 495.75 96.570312 491.03125 94.863281 486.269531 C 93.160156 481.507812 91.574219 476.707031 90.105469 471.867188 C 88.636719 467.027344 87.289062 462.15625 86.0625 457.25 C 84.832031 452.34375 83.722656 447.410156 82.738281 442.449219 C 81.75 437.488281 80.886719 432.507812 80.144531 427.503906 C 79.402344 422.503906 78.785156 417.484375 78.289062 412.453125 C 77.792969 407.417969 77.421875 402.375 77.171875 397.324219 C 76.925781 392.273438 76.800781 387.21875 76.800781 382.160156 C 76.800781 377.105469 76.925781 372.050781 77.171875 367 C 77.421875 361.945312 77.792969 356.90625 78.289062 351.871094 C 78.785156 346.839844 79.402344 341.820312 80.144531 336.816406 C 80.886719 331.816406 81.75 326.832031 82.738281 321.871094 C 83.722656 316.914062 84.832031 311.980469 86.0625 307.074219 C 87.289062 302.167969 88.636719 297.292969 90.105469 292.453125 C 91.574219 287.617188 93.160156 282.816406 94.863281 278.050781 C 96.570312 273.289062 98.386719 268.574219 100.324219 263.902344 C 102.257812 259.230469 104.308594 254.605469 106.46875 250.035156 C 108.632812 245.460938 110.90625 240.945312 113.289062 236.484375 C 115.675781 232.027344 118.164062 227.625 120.765625 223.289062 C 123.367188 218.949219 126.070312 214.679688 128.878906 210.472656 C 131.691406 206.269531 134.601562 202.136719 137.613281 198.074219 C 140.628906 194.011719 143.738281 190.023438 146.945312 186.117188 C 150.15625 182.207031 153.457031 178.378906 156.855469 174.628906 C 160.25 170.882812 163.738281 167.222656 167.3125 163.644531 C 170.890625 160.070312 174.550781 156.582031 178.296875 153.1875 C 182.046875 149.789062 185.875 146.488281 189.78125 143.277344 C 193.691406 140.070312 197.679688 136.960938 201.742188 133.945312 C 205.804688 130.933594 209.9375 128.023438 214.140625 125.214844 C 218.347656 122.402344 222.617188 119.699219 226.957031 117.097656 C 231.292969 114.5 235.695312 112.007812 240.152344 109.621094 C 244.613281 107.238281 249.128906 104.964844 253.703125 102.800781 C 258.273438 100.640625 262.894531 98.589844 267.570312 96.65625 C 272.242188 94.71875 276.957031 92.902344 281.71875 91.195312 C 286.480469 89.492188 291.28125 87.90625 296.121094 86.4375 C 300.960938 84.972656 305.835938 83.621094 310.742188 82.394531 C 315.648438 81.164062 320.582031 80.058594 325.539062 79.070312 C 330.5 78.082031 335.484375 77.21875 340.484375 76.476562 C 345.488281 75.734375 350.507812 75.117188 355.539062 74.621094 C 360.570312 74.125 365.613281 73.753906 370.664062 73.503906 C 375.71875 73.257812 380.773438 73.132812 385.828125 73.132812 C 390.886719 73.132812 395.941406 73.257812 400.992188 73.503906 C 406.042969 73.753906 411.085938 74.125 416.121094 74.621094 C 421.152344 75.117188 426.171875 75.734375 431.171875 76.476562 C 436.175781 77.21875 441.15625 78.082031 446.117188 79.070312 C 451.078125 80.058594 456.011719 81.164062 460.917969 82.394531 C 465.824219 83.621094 470.695312 84.972656 475.535156 86.4375 C 480.375 87.90625 485.175781 89.492188 489.9375 91.195312 C 494.699219 92.902344 499.417969 94.71875 504.089844 96.65625 C 508.761719 98.589844 513.382812 100.640625 517.957031 102.800781 C 522.527344 104.964844 527.042969 107.238281 531.503906 109.621094 C 535.964844 112.007812 540.363281 114.5 544.703125 117.097656 C 549.039062 119.699219 553.3125 122.402344 557.515625 125.214844 C 561.722656 128.023438 565.855469 130.933594 569.917969 133.945312 C 573.980469 136.960938 577.964844 140.070312 581.875 143.277344 C 585.785156 146.488281 589.613281 149.789062 593.359375 153.1875 C 597.109375 156.582031 600.769531 160.070312 604.347656 163.644531 C 607.921875 167.222656 611.410156 170.882812 614.804688 174.628906 C 618.203125 178.378906 621.503906 182.207031 624.710938 186.117188 C 627.921875 190.023438 631.03125 194.011719 634.042969 198.074219 C 637.054688 202.136719 639.96875 206.269531 642.777344 210.472656 C 645.585938 214.679688 648.292969 218.949219 650.890625 223.289062 C 653.492188 227.625 655.984375 232.027344 658.367188 236.484375 C 660.753906 240.945312 663.027344 245.460938 665.1875 250.035156 C 667.351562 254.605469 669.398438 259.230469 671.335938 263.902344 C 673.269531 268.574219 675.089844 273.289062 676.792969 278.050781 C 678.496094 282.816406 680.082031 287.617188 681.550781 292.453125 C 683.019531 297.292969 684.367188 302.167969 685.597656 307.074219 C 686.824219 311.980469 687.933594 316.914062 688.921875 321.871094 C 689.90625 326.832031 690.773438 331.816406 691.515625 336.816406 C 692.253906 341.820312 692.875 346.839844 693.371094 351.871094 C 693.867188 356.90625 694.238281 361.945312 694.484375 367 C 694.734375 372.050781 694.859375 377.105469 694.859375 382.160156 Z M 694.859375 382.160156 " fill-opacity="1" fill-rule="nonzero"/></g><g clip-path="url(#9f68d1014a)"><path fill="#ffffff" d="M 543.320312 243.101562 L 228.335938 243.101562 L 376.285156 356.90625 C 381.910156 361.234375 389.746094 361.234375 395.375 356.90625 Z M 197.964844 259.242188 L 197.964844 524.898438 L 573.695312 524.898438 L 573.695312 259.238281 L 414.464844 381.722656 C 397.582031 394.710938 374.074219 394.710938 357.191406 381.722656 Z M 166.652344 243.101562 C 166.652344 225.808594 180.671875 211.789062 197.964844 211.789062 L 573.695312 211.789062 C 590.988281 211.789062 605.003906 225.808594 605.003906 243.101562 L 605.003906 524.898438 C 605.003906 542.191406 590.988281 556.210938 573.695312 556.210938 L 197.964844 556.210938 C 180.671875 556.210938 166.652344 542.191406 166.652344 524.898438 Z M 166.652344 243.101562 " fill-opacity="1" fill-rule="evenodd"/></g></svg>